<svg width="1598" height="496" viewBox="0 0 1598 496" fill="none" xmlns="http://www.w3.org/2000/svg">
<g filter="url(#filter0_d_333_37)">
<path d="M21.418 112.745L97.5432 59.4419L316.267 371.811L251.982 487.61L21.418 112.745Z" fill="#012E40"/>
<path d="M405.046 62.5845L483.628 111.1L318.862 363.35L258.132 275.781L405.046 62.5845Z" fill="#012E40"/>
<path d="M371.504 18.6743L491.767 99.8537L483.144 112.168L335.823 19.0487L371.504 18.6743Z" fill="#012E40"/>
<path d="M13.7207 101.491L131.937 18.715L167.034 19.1082L22.3433 113.805L13.7207 101.491Z" fill="#012E40"/>
</g>
<g filter="url(#filter1_d_333_37)">
<path d="M823.286 108.726V117.631C817.578 117.631 811.755 119.914 805.819 124.481C799.882 129.048 794.859 136.811 790.749 147.771L706.836 368H692.793L613.333 159.074C612.876 157.932 611.734 155.192 609.908 150.854C608.081 146.287 605.798 141.606 603.058 136.811C600.318 131.788 597.007 127.335 593.125 123.454C589.472 119.572 585.59 117.631 581.48 117.631V108.726H672.586V117.631C665.279 117.631 660.94 120.714 659.57 126.879C658.429 133.044 660.027 141.492 664.365 152.224L719.166 299.5L779.104 142.634C780.245 139.894 780.93 137.04 781.159 134.071C781.615 131.103 781.387 128.477 780.474 126.194C779.789 123.682 778.304 121.627 776.021 120.029C773.966 118.43 771.112 117.631 767.459 117.631V108.726H823.286ZM895.712 254.289V331.352C895.712 335.691 896.74 339.002 898.795 341.285C900.85 343.34 903.361 344.71 906.33 345.395C909.526 345.852 912.837 345.737 916.262 345.052C919.687 344.139 922.77 342.883 925.51 341.285C925.738 343.34 925.852 345.623 925.852 348.135C926.081 350.418 926.195 352.245 926.195 353.615C920.258 357.04 913.294 360.237 905.302 363.205C897.539 365.945 889.775 367.543 882.012 368C874.249 368.228 867.056 367.087 860.434 364.575C853.813 361.835 848.904 356.697 845.707 349.162C839.314 356.697 831.436 361.949 822.074 364.917C812.941 367.886 803.922 368.685 795.017 367.315C786.34 365.717 778.691 361.949 772.069 356.012C765.447 350.076 761.68 342.084 760.766 332.037C759.625 321.991 761.109 313.086 765.219 305.322C769.329 297.33 775.266 290.709 783.029 285.457C791.021 279.977 800.382 275.867 811.114 273.127C821.846 270.387 833.377 269.017 845.707 269.017V253.262C845.707 242.758 845.022 233.968 843.652 226.889C842.51 219.811 839.428 216.272 834.404 216.272C830.751 216.272 827.554 218.327 824.814 222.437C822.303 226.318 820.362 231.342 818.992 237.507C817.393 244.813 814.882 250.294 811.457 253.947C808.032 257.6 804.378 259.884 800.497 260.797C796.615 261.71 792.733 261.482 788.852 260.112C785.198 258.514 782.116 256.23 779.604 253.262C777.321 250.065 776.065 246.298 775.836 241.959C775.836 237.393 777.435 232.598 780.632 227.574C784.742 221.409 791.021 215.815 799.469 210.792C807.917 205.768 819.334 203.257 833.719 203.257C853.128 203.257 868.312 207.595 879.272 216.272C890.232 224.72 895.712 237.393 895.712 254.289ZM845.707 336.147V281.69C838.4 281.69 831.893 283.288 826.184 286.485C820.476 289.453 815.795 293.335 812.142 298.13C808.717 302.925 806.319 308.176 804.949 313.885C803.579 319.593 803.579 325.073 804.949 330.325C806.776 337.86 811.571 342.541 819.334 344.367C827.098 346.194 835.888 343.454 845.707 336.147ZM931.675 134.071L990.928 108.384H1000.86V321.42C1000.86 324.845 1000.97 328.726 1001.2 333.065C1001.66 337.403 1002.46 341.513 1003.6 345.395C1004.74 349.277 1006.45 352.587 1008.74 355.327C1011.02 357.839 1014.22 359.095 1018.33 359.095V368H933.387V359.095C937.269 359.095 940.352 357.839 942.635 355.327C944.918 352.587 946.631 349.277 947.772 345.395C949.142 341.513 949.942 337.403 950.17 333.065C950.627 328.726 950.855 324.845 950.855 321.42V178.254C950.855 173.231 950.17 169.006 948.8 165.581C947.658 161.928 946.174 158.845 944.347 156.334C942.521 153.594 940.466 151.196 938.182 149.141C935.899 147.086 933.73 145.031 931.675 142.976V134.071ZM1029.34 228.602L1088.59 203.257H1098.53V321.42C1098.53 324.845 1098.64 328.726 1098.87 333.065C1099.33 337.403 1100.13 341.513 1101.27 345.395C1102.41 349.277 1104.12 352.587 1106.4 355.327C1108.92 357.839 1112.11 359.095 1115.99 359.095V368H1031.05V359.095C1034.94 359.095 1038.02 357.839 1040.3 355.327C1042.58 352.587 1044.3 349.277 1045.44 345.395C1046.81 341.513 1047.61 337.403 1047.84 333.065C1048.29 328.726 1048.52 324.845 1048.52 321.42V272.784C1048.52 267.761 1047.84 263.423 1046.47 259.769C1045.32 256.116 1043.84 253.034 1042.01 250.522C1040.19 248.01 1038.13 245.727 1035.85 243.672C1033.57 241.617 1031.4 239.562 1029.34 237.507V228.602ZM1072.15 184.419C1065.08 184.419 1059.14 182.021 1054.34 177.226C1049.55 172.203 1047.15 166.266 1047.15 159.416C1047.15 152.566 1049.55 146.744 1054.34 141.949C1059.14 136.925 1065.08 134.414 1072.15 134.414C1079 134.414 1084.83 136.925 1089.62 141.949C1094.65 146.744 1097.16 152.566 1097.16 159.416C1097.16 166.266 1094.65 172.203 1089.62 177.226C1084.83 182.021 1079 184.419 1072.15 184.419ZM1201.53 203.599C1212.95 203.599 1223.68 205.654 1233.73 209.764C1243.77 213.646 1252.45 219.24 1259.76 226.547C1267.29 233.625 1273.23 242.302 1277.57 252.577C1281.91 262.624 1284.07 273.698 1284.07 285.8C1284.07 297.901 1281.91 309.09 1277.57 319.365C1273.23 329.411 1267.29 338.088 1259.76 345.395C1252.45 352.473 1243.77 358.067 1233.73 362.177C1223.68 366.059 1212.95 368 1201.53 368C1190.11 368 1179.38 366.059 1169.34 362.177C1159.29 358.067 1150.5 352.473 1142.96 345.395C1135.43 338.088 1129.49 329.411 1125.15 319.365C1120.82 309.09 1118.65 297.901 1118.65 285.8C1118.65 273.698 1120.82 262.624 1125.15 252.577C1129.49 242.302 1135.43 233.625 1142.96 226.547C1150.5 219.24 1159.29 213.646 1169.34 209.764C1179.38 205.654 1190.11 203.599 1201.53 203.599ZM1201.53 352.245C1206.78 352.245 1211.35 350.532 1215.23 347.107C1219.34 343.454 1222.77 338.659 1225.51 332.722C1228.25 326.786 1230.3 319.821 1231.67 311.83C1233.27 303.61 1234.07 294.933 1234.07 285.8C1234.07 276.666 1233.27 268.104 1231.67 260.112C1230.3 251.892 1228.25 244.813 1225.51 238.877C1222.77 232.712 1219.34 227.917 1215.23 224.492C1211.35 220.838 1206.78 219.012 1201.53 219.012C1196.28 219.012 1191.6 220.838 1187.49 224.492C1183.38 227.917 1179.95 232.712 1177.21 238.877C1174.47 244.813 1172.3 251.892 1170.71 260.112C1169.34 268.104 1168.65 276.666 1168.65 285.8C1168.65 294.933 1169.34 303.61 1170.71 311.83C1172.3 319.821 1174.47 326.786 1177.21 332.722C1179.95 338.659 1183.38 343.454 1187.49 347.107C1191.6 350.532 1196.28 352.245 1201.53 352.245ZM1288.89 353.615C1294.15 343.112 1299.51 333.065 1304.99 323.475C1310.7 313.885 1316.29 304.523 1321.77 295.39C1327.48 286.028 1333.19 276.78 1338.9 267.647C1344.84 258.285 1350.54 248.581 1356.02 238.534C1359.45 232.598 1361.62 228.031 1362.53 224.834C1363.67 221.638 1363.79 219.354 1362.87 217.984C1361.96 216.614 1360.13 215.815 1357.39 215.587C1354.88 215.358 1351.57 215.244 1347.46 215.244C1347.46 215.244 1346.78 215.244 1345.41 215.244C1344.26 215.244 1342.89 215.244 1341.3 215.244C1339.7 215.244 1338.21 215.358 1336.84 215.587C1335.7 215.587 1335.13 215.587 1335.13 215.587C1326 215.815 1318.81 218.898 1313.55 224.834C1308.3 230.543 1304.08 239.333 1300.88 251.207C1299.97 250.979 1298.6 250.636 1296.77 250.179C1295.17 249.723 1293.92 249.494 1293 249.494L1298.83 203.257H1418.7V217.984C1413.45 228.259 1407.97 238.192 1402.26 247.782C1396.78 257.144 1391.19 266.505 1385.48 275.867C1379.77 285 1374.06 294.248 1368.35 303.61C1362.65 312.971 1357.05 322.676 1351.57 332.722C1348.37 338.887 1346.43 343.568 1345.75 346.765C1345.06 349.962 1345.41 352.245 1346.78 353.615C1348.15 354.985 1350.32 355.784 1353.28 356.012C1356.25 356.012 1359.68 356.012 1363.56 356.012H1372.46C1381.6 355.556 1389.82 352.245 1397.12 346.08C1404.66 339.915 1410.03 330.896 1413.22 319.022L1420.76 321.077L1413.91 368H1288.89V353.615ZM1475.7 279.292H1508.92C1517.37 279.292 1524.11 277.922 1529.13 275.182C1534.38 272.442 1538.03 268.903 1540.09 264.564C1542.37 259.998 1543.17 255.089 1542.49 249.837C1541.8 244.585 1539.98 239.333 1537.01 234.082C1534.95 230.428 1531.98 227.346 1528.1 224.834C1524.22 222.323 1520.11 220.61 1515.77 219.697C1511.66 218.783 1507.44 218.898 1503.1 220.039C1498.76 221.181 1494.99 223.464 1491.8 226.889C1486.77 232.141 1482.89 239.333 1480.15 248.467C1477.64 257.6 1476.16 267.875 1475.7 279.292ZM1590.78 292.307H1475.7C1476.38 301.897 1478.55 310.231 1482.21 317.31C1486.09 324.16 1490.77 329.754 1496.25 334.092C1501.96 338.431 1508.12 341.399 1514.74 342.997C1521.59 344.596 1528.44 344.938 1535.29 344.025C1542.37 343.112 1548.99 340.942 1555.16 337.517C1561.55 333.864 1567.15 329.069 1571.94 323.132L1580.85 329.64C1578.34 334.206 1574.57 338.773 1569.54 343.34C1564.52 347.907 1558.7 352.017 1552.08 355.67C1545.68 359.323 1538.72 362.292 1531.18 364.575C1523.65 366.858 1516 368 1508.24 368C1496.82 368 1486.09 366.059 1476.04 362.177C1465.99 358.067 1457.2 352.473 1449.67 345.395C1442.36 338.088 1436.54 329.411 1432.2 319.365C1427.86 309.09 1425.69 297.901 1425.69 285.8C1425.69 273.698 1427.86 262.624 1432.2 252.577C1436.54 242.302 1442.36 233.625 1449.67 226.547C1457.2 219.24 1465.99 213.646 1476.04 209.764C1486.09 205.654 1496.82 203.599 1508.24 203.599C1521.94 203.599 1533.92 205.997 1544.2 210.792C1554.7 215.358 1563.38 221.752 1570.23 229.972C1577.08 237.963 1582.22 247.325 1585.64 258.057C1589.07 268.789 1590.78 280.205 1590.78 292.307Z" fill="#012E40"/>
</g>
<path d="M671.88 419.448H675.552L686.856 466.176L701.184 419.448H704.208L718.464 466.176L729.84 419.448H733.584L720.624 471H716.736L702.696 424.92L688.656 471H684.768L671.88 419.448ZM794.125 419.448H822.781V422.544H797.581V443.784H821.701V446.664H797.581V467.832H822.781V471H794.125V419.448ZM902.89 419.448C907.258 419.448 910.594 420.648 912.898 423.048C915.202 425.4 916.354 428.736 916.354 433.056C916.354 435.984 915.49 438.504 913.762 440.616C912.082 442.728 910.138 444.12 907.93 444.792C910.954 445.464 913.474 446.856 915.49 448.968C917.554 451.032 918.586 453.696 918.586 456.96C918.586 461.424 917.29 464.88 914.698 467.328C912.154 469.776 908.626 471 904.114 471H884.674V419.448H902.89ZM902.098 443.784C903.97 443.784 905.722 443.304 907.354 442.344C908.986 441.384 910.306 440.112 911.314 438.528C912.322 436.896 912.826 435.12 912.826 433.2C912.826 429.792 911.89 427.176 910.018 425.352C908.194 423.48 905.554 422.544 902.098 422.544H888.058V443.784H902.098ZM903.682 467.904C907.138 467.904 909.898 466.944 911.962 465.024C914.026 463.056 915.058 460.344 915.058 456.888C915.058 454.968 914.506 453.24 913.402 451.704C912.346 450.12 910.93 448.896 909.154 448.032C907.426 447.12 905.602 446.664 903.682 446.664H888.058V467.904H903.682ZM1069.73 471.864C1066.32 471.864 1063.22 471.264 1060.44 470.064C1057.7 468.864 1055.54 467.184 1053.96 465.024C1052.42 462.816 1051.66 460.296 1051.66 457.464H1055.4C1055.4 459.672 1056 461.64 1057.2 463.368C1058.45 465.048 1060.15 466.368 1062.31 467.328C1064.52 468.288 1066.99 468.768 1069.73 468.768C1072.56 468.768 1075.13 468.312 1077.43 467.4C1079.74 466.44 1081.54 465.12 1082.83 463.44C1084.18 461.712 1084.85 459.744 1084.85 457.536C1084.85 455.472 1084.2 453.816 1082.9 452.568C1081.66 451.272 1080.07 450.264 1078.15 449.544C1076.28 448.824 1073.74 448.032 1070.52 447.168C1066.73 446.112 1063.68 445.128 1061.38 444.216C1059.07 443.256 1057.1 441.864 1055.47 440.04C1053.89 438.168 1053.1 435.744 1053.1 432.768C1053.1 430.128 1053.86 427.728 1055.4 425.568C1056.94 423.408 1059.05 421.704 1061.74 420.456C1064.42 419.208 1067.4 418.584 1070.66 418.584C1073.45 418.584 1076.14 419.112 1078.73 420.168C1081.32 421.176 1083.48 422.76 1085.21 424.92C1086.94 427.032 1087.87 429.672 1088.02 432.84H1084.42C1084.22 430.296 1083.43 428.184 1082.04 426.504C1080.65 424.824 1078.94 423.6 1076.93 422.832C1074.91 422.064 1072.82 421.68 1070.66 421.68C1068.07 421.68 1065.72 422.184 1063.61 423.192C1061.5 424.152 1059.84 425.472 1058.64 427.152C1057.44 428.832 1056.84 430.68 1056.84 432.696C1056.84 434.952 1057.51 436.8 1058.86 438.24C1060.2 439.632 1061.86 440.736 1063.82 441.552C1065.84 442.32 1068.55 443.16 1071.96 444.072C1075.66 445.08 1078.58 446.04 1080.74 446.952C1082.95 447.816 1084.82 449.088 1086.36 450.768C1087.9 452.448 1088.66 454.68 1088.66 457.464C1088.66 460.296 1087.85 462.816 1086.22 465.024C1084.58 467.184 1082.33 468.864 1079.45 470.064C1076.57 471.264 1073.33 471.864 1069.73 471.864ZM1160.38 422.544H1144.61V419.448H1179.53V422.544H1163.76V471H1160.38V422.544ZM1252.46 471.864C1246.41 471.864 1241.97 470.4 1239.14 467.472C1236.36 464.544 1234.97 460.056 1234.97 454.008V419.448H1238.28V453.648C1238.28 458.688 1239.41 462.432 1241.66 464.88C1243.92 467.328 1247.52 468.552 1252.46 468.552C1257.41 468.552 1260.98 467.328 1263.19 464.88C1265.45 462.432 1266.57 458.688 1266.57 453.648V419.448H1269.96V454.008C1269.96 460.056 1268.54 464.544 1265.71 467.472C1262.93 470.4 1258.51 471.864 1252.46 471.864ZM1354.12 419.448C1358.54 419.448 1362.21 420.648 1365.14 423.048C1368.07 425.4 1370.23 428.544 1371.62 432.48C1373.01 436.368 1373.71 440.616 1373.71 445.224C1373.71 449.832 1373.01 454.104 1371.62 458.04C1370.23 461.928 1368.07 465.072 1365.14 467.472C1362.21 469.824 1358.54 471 1354.12 471H1337.28V419.448H1354.12ZM1353.98 467.76C1357.72 467.76 1360.8 466.704 1363.2 464.592C1365.64 462.432 1367.4 459.672 1368.45 456.312C1369.56 452.904 1370.11 449.208 1370.11 445.224C1370.11 441.288 1369.56 437.616 1368.45 434.208C1367.4 430.8 1365.64 428.04 1363.2 425.928C1360.8 423.768 1357.72 422.688 1353.98 422.688H1340.73V467.76H1353.98ZM1438.51 419.448H1441.97V471H1438.51V419.448ZM1531.16 471.864C1525.69 471.864 1521.13 470.64 1517.48 468.192C1513.88 465.696 1511.22 462.456 1509.49 458.472C1507.81 454.44 1506.97 450.024 1506.97 445.224C1506.97 440.424 1507.81 436.032 1509.49 432.048C1511.22 428.016 1513.88 424.776 1517.48 422.328C1521.13 419.832 1525.69 418.584 1531.16 418.584C1536.63 418.584 1541.17 419.832 1544.77 422.328C1548.37 424.776 1551.01 428.016 1552.69 432.048C1554.42 436.032 1555.28 440.424 1555.28 445.224C1555.28 450.024 1554.42 454.44 1552.69 458.472C1551.01 462.456 1548.37 465.696 1544.77 468.192C1541.17 470.64 1536.63 471.864 1531.16 471.864ZM1531.16 468.552C1535.96 468.552 1539.9 467.448 1542.97 465.24C1546.09 463.032 1548.35 460.176 1549.74 456.672C1551.13 453.168 1551.83 449.352 1551.83 445.224C1551.83 441.096 1551.13 437.28 1549.74 433.776C1548.35 430.224 1546.09 427.344 1542.97 425.136C1539.9 422.928 1535.96 421.824 1531.16 421.824C1526.36 421.824 1522.4 422.928 1519.28 425.136C1516.21 427.344 1513.98 430.224 1512.59 433.776C1511.19 437.28 1510.5 441.096 1510.5 445.224C1510.5 449.352 1511.19 453.168 1512.59 456.672C1513.98 460.176 1516.21 463.032 1519.28 465.24C1522.4 467.448 1526.36 468.552 1531.16 468.552Z" fill="#012E40"/>
<defs>
<filter id="filter0_d_333_37" x="9.7207" y="18.6743" width="486.046" height="476.936" filterUnits="userSpaceOnUse" color-interpolation-filters="sRGB">
<feFlood flood-opacity="0" result="BackgroundImageFix"/>
<feColorMatrix in="SourceAlpha" type="matrix" values="0 0 0 0 0 0 0 0 0 0 0 0 0 0 0 0 0 0 127 0" result="hardAlpha"/>
<feOffset dy="4"/>
<feGaussianBlur stdDeviation="2"/>
<feComposite in2="hardAlpha" operator="out"/>
<feColorMatrix type="matrix" values="0 0 0 0 0 0 0 0 0 0 0 0 0 0 0 0 0 0 0.25 0"/>
<feBlend mode="normal" in2="BackgroundImageFix" result="effect1_dropShadow_333_37"/>
<feBlend mode="normal" in="SourceGraphic" in2="effect1_dropShadow_333_37" result="shape"/>
</filter>
<filter id="filter1_d_333_37" x="575.253" y="108.384" width="1021.75" height="273.441" filterUnits="userSpaceOnUse" color-interpolation-filters="sRGB">
<feFlood flood-opacity="0" result="BackgroundImageFix"/>
<feColorMatrix in="SourceAlpha" type="matrix" values="0 0 0 0 0 0 0 0 0 0 0 0 0 0 0 0 0 0 127 0" result="hardAlpha"/>
<feOffset dy="6.22731"/>
<feGaussianBlur stdDeviation="3.11365"/>
<feComposite in2="hardAlpha" operator="out"/>
<feColorMatrix type="matrix" values="0 0 0 0 0 0 0 0 0 0 0 0 0 0 0 0 0 0 0.25 0"/>
<feBlend mode="normal" in2="BackgroundImageFix" result="effect1_dropShadow_333_37"/>
<feBlend mode="normal" in="SourceGraphic" in2="effect1_dropShadow_333_37" result="shape"/>
</filter>
</defs>
</svg>
