<svg width="88" height="88" viewBox="0 0 88 88" fill="none" xmlns="http://www.w3.org/2000/svg">
<rect x="42.5791" width="62" height="62" rx="15" transform="rotate(43.3743 42.5791 0)" fill="#D9D9D9"/>
<path d="M45.4998 25.5L77.9999 53L66.1885 65.4733L52.574 79.9734L28.4999 59L42.4999 25.5L45.4998 25.5Z" fill="#404040" fill-opacity="0.4"/>
<g clip-path="url(#clip0_109_6)">
<path d="M61.828 60.2629L60.2628 61.8281C60.1481 61.9426 59.9979 62 59.8477 62C59.6975 62 59.5472 61.9427 59.4325 61.8281C59.2033 61.5989 59.2033 61.2272 59.4325 60.998L59.9958 60.4348H29.7174C28.5307 60.4348 27.5652 59.4693 27.5652 58.2826V28.004L27.002 28.5673C26.7727 28.7965 26.4011 28.7965 26.1719 28.5673C25.9427 28.338 25.9427 27.9664 26.1719 27.7372L27.7371 26.1719C27.9664 25.9427 28.338 25.9427 28.5672 26.1719L30.1324 27.7371C30.3616 27.9664 30.3616 28.338 30.1324 28.5672C30.0177 28.6817 29.8675 28.7391 29.7173 28.7391C29.5671 28.7391 29.4168 28.6818 29.3022 28.5672L28.739 28.0039V58.2826C28.739 58.822 29.1778 59.2608 29.7173 59.2608H59.9959L59.4326 58.6976C59.2034 58.4683 59.2034 58.0967 59.4326 57.8675C59.6619 57.6383 60.0335 57.6383 60.2627 57.8675L61.8279 59.4328C62.0572 59.662 62.0572 60.0337 61.828 60.2629Z" fill="white"/>
<path d="M45.5653 56.5217H42.4349C41.5704 56.5217 40.8696 55.821 40.8696 54.9565V27.5652C40.8696 26.7007 41.5704 26 42.4349 26H45.5653C46.4298 26 47.1305 26.7007 47.1305 27.5652V54.9565C47.1305 55.821 46.4298 56.5217 45.5653 56.5217Z" fill="#404040"/>
<path d="M36.174 56.5217H33.0435C32.179 56.5217 31.4783 55.821 31.4783 54.9565V36.9565C31.4783 36.092 32.179 35.3912 33.0435 35.3912H36.174C37.0384 35.3912 37.7392 36.092 37.7392 36.9565V54.9565C37.7392 55.821 37.0384 56.5217 36.174 56.5217Z" fill="#836700"/>
<path d="M54.9564 56.5217H51.826C50.9615 56.5217 50.2607 55.821 50.2607 54.9565V45.5652C50.2607 44.7007 50.9615 44 51.826 44H54.9564C55.8209 44 56.5216 44.7007 56.5216 45.5652V54.9565C56.5216 55.821 55.8209 56.5217 54.9564 56.5217Z" fill="#836700"/>
</g>
<defs>
<clipPath id="clip0_109_6">
<rect width="36" height="36" fill="white" transform="translate(26 26)"/>
</clipPath>
</defs>
</svg>
