<svg width="105" height="93" viewBox="0 0 105 93" fill="none" xmlns="http://www.w3.org/2000/svg">
<path d="M23.7678 23.437C0.567834 47.4723 -1.5655 50.9456 0.701168 58.8648C1.90117 62.7549 24.5678 87.207 29.6345 89.9856C36.0345 93.4589 41.2345 92.4864 46.1678 86.9291C51.3678 81.2329 51.6345 79.9825 48.0345 78.7321C46.5678 78.3153 45.3678 76.6481 45.3678 75.2588C45.3678 71.2298 41.3678 69.7015 36.4345 71.7855C34.1678 72.758 31.9012 73.3137 31.5012 72.8969C29.7678 70.9519 30.8345 60.8098 33.2345 57.4755C34.5678 55.2525 36.1678 49.8342 36.7012 44.6937C37.2345 39.6921 38.8345 31.9119 40.1678 27.3271C42.7012 18.7133 49.5012 8.5713 52.7012 8.5713C58.4345 8.5713 66.7012 29.2722 66.7012 43.7212C66.7012 49.8342 67.5012 53.5854 69.3678 56.9197C71.7678 60.9488 73.2345 73.8695 71.3678 73.8695C70.8345 73.8695 68.8345 72.8969 66.7012 71.7855C63.5012 69.9794 62.3012 69.9794 60.0345 71.3687C58.5678 72.3412 57.3678 74.1473 57.3678 75.3977C57.3678 76.6481 56.1678 78.0374 54.5678 78.4542C51.3678 79.2878 52.3012 82.0665 57.9012 88.0406C66.1678 96.5154 72.0345 94.1536 89.7678 75.5367C102.968 61.5045 104.035 59.9762 104.035 54.9747C104.035 51.9182 103.101 47.8891 101.901 46.083C98.3012 40.3868 63.6345 4.40333 59.7678 2.1804C57.7678 1.06895 53.9012 0.235359 51.2345 0.235359C46.5678 0.235359 44.7012 1.76361 23.7678 23.437Z" fill="#404040"/>
<path d="M47.7678 29.5501C44.8345 31.3562 44.5678 38.1639 47.5011 41.0815C50.3011 43.999 55.1011 43.8601 57.7678 40.8036C64.0345 33.5791 55.9011 24.5485 47.7678 29.5501Z" fill="#404040"/>
</svg>
