<svg width="88" height="88" viewBox="0 0 88 88" fill="none" xmlns="http://www.w3.org/2000/svg">
<rect x="42.5793" width="62" height="62" rx="15" transform="rotate(43.3743 42.5793 0)" fill="#D9D9D9"/>
<path d="M49.0003 34.8724L63.0002 39.5L80.1674 49.8725L73.1676 57.8725L66.3563 65.8456L52.7419 79.3725L39.5002 61L32.5003 31.5L49.0003 34.8724Z" fill="#404040" fill-opacity="0.4"/>
<g clip-path="url(#clip0_109_7)">
<path d="M63.3927 54.1965L56.8462 47.6498L62.5264 41.9695C63.0346 41.4614 63.2435 40.7266 63.0785 40.0273C62.9139 39.3278 62.3987 38.7635 61.7172 38.5359L30.7315 28.1819C29.9859 27.9325 29.1635 28.1265 28.6078 28.6825C28.0518 29.2384 27.8581 30.0607 28.1072 30.8063L38.4614 61.792C38.6889 62.4735 39.2534 62.9886 39.9527 63.1534C40.6514 63.3183 41.3867 63.1096 41.8949 62.6013L47.725 56.7713L54.2716 63.3178C54.6766 63.7228 55.2074 63.9253 55.7381 63.9253C56.2688 63.9253 56.7997 63.7228 57.2045 63.3178L63.3927 57.1296C64.2026 56.3197 64.2026 55.0064 63.3927 54.1965ZM55.7381 58.9181L49.1914 52.3716C48.7864 51.9666 48.2556 51.7641 47.725 51.7641C47.1943 51.7641 46.6634 51.9666 46.2585 52.3716L41.3329 57.2972L33.3583 33.433L57.2225 41.4075L52.4466 46.1833C51.6367 46.9932 51.6367 48.3064 52.4466 49.1164L58.9932 55.663L55.7381 58.9181Z" fill="#404040"/>
</g>
<defs>
<clipPath id="clip0_109_7">
<rect width="36" height="36" fill="white" transform="translate(28.0002 28)"/>
</clipPath>
</defs>
</svg>
