<svg width="250" height="145" viewBox="0 0 250 145" fill="none" xmlns="http://www.w3.org/2000/svg">
<path d="M73.4091 51.0537H68.1339V41.1935C68.1339 39.7608 67.6327 38.5497 66.6295 37.5466C65.6267 36.55 64.4087 36.0488 62.9761 36.0488C61.048 36.0488 59.5766 36.8693 58.5604 38.5041V38.5431V51.0537H53.285V41.1935C53.285 39.7869 52.777 38.5822 51.7545 37.566C50.7385 36.5568 49.5205 36.0488 48.1076 36.0488C46.6684 36.0488 45.4373 36.55 44.4216 37.5466C43.3987 38.5497 42.8911 39.7608 42.8911 41.1935V51.0537H37.6157V41.1872C37.6157 38.276 38.6319 35.8145 40.6637 33.7952C42.6956 31.7827 45.1704 30.7736 48.0878 30.7736C50.9797 30.7736 53.4546 31.8024 55.5124 33.8605C57.5704 31.8024 60.0452 30.7736 62.9367 30.7736C65.8544 30.7736 68.3293 31.7827 70.3615 33.7952C72.3932 35.8145 73.4091 38.276 73.4091 41.1872V51.0537ZM98.2462 51.0537H92.6387L91.5317 48.0062C89.4475 50.4548 86.7906 51.6793 83.5538 51.6793C80.6363 51.6793 78.1677 50.6631 76.1489 48.6312C74.1301 46.599 73.1204 44.1375 73.1204 41.2457C73.1204 39.0317 73.7459 37.032 74.9962 35.2475C76.2468 33.463 77.9138 32.1933 79.9979 31.4376C81.2225 30.995 82.4208 30.7736 83.5929 30.7736C85.8075 30.7736 87.8066 31.4054 89.591 32.6685C91.3756 33.9322 92.6455 35.6056 93.4009 37.6898L98.2462 51.0537ZM88.7509 41.2263C88.7509 39.3961 88.0086 37.9698 86.5237 36.9538C85.6639 36.3482 84.6739 36.0488 83.5538 36.0488C81.7304 36.0488 80.3238 36.778 79.3338 38.2435C78.7082 39.1619 78.3957 40.1518 78.3957 41.2263C78.3957 43.0302 79.1383 44.4434 80.6229 45.4597C81.535 46.091 82.5116 46.4041 83.5538 46.4041C84.9864 46.4041 86.2107 45.9023 87.2269 44.8927C88.2429 43.8898 88.7509 42.6655 88.7509 41.2263ZM114.641 46.6561C114.218 47.3429 113.704 47.9906 113.1 48.5986C111.081 50.624 108.613 51.64 105.695 51.64C102.751 51.64 100.27 50.6303 98.2509 48.6183C96.232 46.599 95.2226 44.1243 95.2226 41.1872C95.2226 38.276 96.2386 35.8145 98.2702 33.7952C100.302 31.7827 102.777 30.7736 105.695 30.7736C107.545 30.7736 109.264 31.2162 110.853 32.102V20.1447H116.128V33.8862C114.156 35.8881 113.171 38.3195 113.171 41.1872C113.171 43.2339 113.661 45.0562 114.641 46.6561ZM110.853 41.1872C110.853 39.7869 110.345 38.5822 109.329 37.566C108.313 36.5568 107.101 36.0488 105.695 36.0488C104.262 36.0488 103.038 36.55 102.022 37.5466C101.006 38.5497 100.498 39.7608 100.498 41.1872C100.498 42.6135 101.006 43.8313 102.022 44.8475C103.038 45.8567 104.262 46.3646 105.695 46.3646C107.127 46.3646 108.345 45.8567 109.349 44.8475C110.351 43.8313 110.853 42.6135 110.853 41.1872Z" fill="#EBEDEF"/>
<path d="M136.322 41.1809C136.322 44.0921 135.313 46.5667 133.294 48.5986C131.275 50.6239 128.807 51.64 125.889 51.64C122.946 51.64 120.464 50.6305 118.446 48.6181C116.427 46.5992 115.417 44.1246 115.417 41.1875C115.417 38.2762 116.433 35.8148 118.465 33.7957C120.497 31.7835 122.972 30.7741 125.889 30.7741C127.739 30.7741 129.458 31.217 131.047 32.1025V20.1458H136.322V41.1809ZM131.047 41.1875C131.047 39.7873 130.539 38.5825 129.523 37.5666C128.507 36.5571 127.296 36.0491 125.889 36.0491C124.456 36.0491 123.232 36.5505 122.216 37.5471C121.2 38.55 120.692 39.7611 120.692 41.1875C120.692 42.6135 121.2 43.8315 122.216 44.8475C123.232 45.857 124.456 46.3649 125.889 46.3649C127.322 46.3649 128.54 45.857 129.543 44.8475C130.546 43.8315 131.047 42.6135 131.047 41.1875Z" fill="#0D436E"/>
<path d="M142.792 26.2804C142.792 27.1663 142.492 27.9151 141.893 28.5272C141.294 29.1394 140.551 29.4456 139.666 29.4456C138.78 29.4456 138.031 29.1394 137.419 28.5272C136.807 27.9151 136.501 27.1663 136.501 26.2804C136.501 25.3949 136.807 24.6523 137.419 24.0533C138.031 23.4543 138.78 23.1546 139.666 23.1546C140.525 23.1546 141.261 23.4606 141.873 24.0727C142.486 24.6848 142.792 25.4208 142.792 26.2804ZM142.323 51.0537H137.048V30.7741H142.323V51.0537Z" fill="#0D436E"/>
<path d="M163.992 56.2506C163.992 60.0018 162.455 62.8932 159.381 64.9252C157.61 66.0975 155.669 66.6837 153.559 66.6837C149.86 66.6837 146.969 65.1335 144.885 62.0337C143.687 60.2363 143.087 58.3086 143.087 56.2506C143.087 54.8962 143.348 53.5937 143.869 52.3432L148.753 54.2969C148.493 54.9222 148.362 55.5734 148.362 56.2506C148.362 57.6836 148.87 58.9012 149.886 59.9041C150.902 60.9069 152.126 61.4087 153.559 61.4087C154.966 61.4087 156.177 60.9007 157.193 59.8781C158.209 58.8556 158.717 57.6444 158.717 56.2312C158.717 53.9322 157.636 52.3237 155.48 51.4054C154.829 51.5617 154.184 51.64 153.533 51.64C150.596 51.64 148.121 50.6305 146.109 48.6117C144.097 46.5927 143.087 44.1115 143.087 41.1678C143.087 38.2503 144.097 35.782 146.122 33.7632C148.147 31.7444 150.616 30.735 153.52 30.735L156.568 23.5062L160.742 25.2776L157.968 31.751C159.805 32.6368 161.27 33.9261 162.357 35.6193C163.445 37.3125 163.992 39.1621 163.992 41.1678C163.992 44.1375 162.911 46.6383 160.749 48.6702C162.911 50.7281 163.992 53.2549 163.992 56.2506ZM158.717 41.1678C158.717 39.7611 158.209 38.55 157.193 37.534C156.177 36.5181 154.966 36.01 153.559 36.01C152.126 36.01 150.902 36.5115 149.886 37.5146C148.87 38.5174 148.362 39.7352 148.362 41.1678C148.362 42.6007 148.87 43.825 149.886 44.841C150.902 45.857 152.126 46.3649 153.559 46.3649C154.992 46.3649 156.21 45.857 157.213 44.841C158.216 43.825 158.717 42.6007 158.717 41.1678Z" fill="#0D436E"/>
<path d="M170.462 26.2804C170.462 27.1663 170.162 27.9151 169.563 28.5272C168.964 29.1394 168.221 29.4456 167.336 29.4456C166.45 29.4456 165.701 29.1394 165.089 28.5272C164.477 27.9151 164.171 27.1663 164.171 26.2804C164.171 25.3949 164.477 24.6523 165.089 24.0533C165.701 23.4543 166.45 23.1546 167.336 23.1546C168.195 23.1546 168.931 23.4606 169.543 24.0727C170.155 24.6848 170.462 25.4208 170.462 26.2804ZM169.993 51.0537H164.717V30.7741H169.993V51.0537Z" fill="#0D436E"/>
<path d="M181.19 51.0537C178.272 51.0537 175.798 50.0444 173.766 48.0321C171.734 46.013 170.718 43.5451 170.718 40.6338V20.1458H175.993V30.7741H181.19V35.2678H175.993V40.621C175.993 42.0536 176.501 43.2713 177.517 44.2745C178.533 45.2773 179.757 45.7788 181.19 45.7788V51.0537Z" fill="#0D436E"/>
<path d="M207.04 51.0537H201.433L200.326 48.0059C198.242 50.4548 195.585 51.679 192.348 51.679C189.431 51.679 186.963 50.6631 184.944 48.6312C182.925 46.5993 181.915 44.1375 181.915 41.246C181.915 39.0319 182.541 37.0325 183.791 35.2481C185.041 33.4638 186.709 32.1939 188.792 31.4385C190.017 30.9956 191.215 30.7741 192.387 30.7741C194.601 30.7741 196.601 31.4059 198.385 32.6693C200.17 33.9327 201.439 35.6062 202.195 37.6904L207.04 51.0537ZM197.545 41.2266C197.545 39.3964 196.803 37.9703 195.318 36.9544C194.458 36.3488 193.468 36.0491 192.348 36.0491C190.525 36.0491 189.118 36.7786 188.128 38.2437C187.503 39.1621 187.19 40.1521 187.19 41.2266C187.19 43.0305 187.933 44.4437 189.418 45.4597C190.33 46.0912 191.306 46.404 192.348 46.404C193.781 46.404 195.005 45.9026 196.021 44.8929C197.037 43.8901 197.545 42.6658 197.545 41.2266Z" fill="#0D436E"/>
<path d="M213.08 51.0537H207.805V20.1458H213.08V51.0537Z" fill="#0D436E"/>
</svg>
