<svg width="100" height="100" viewBox="0 0 100 100" fill="none" xmlns="http://www.w3.org/2000/svg">
<path d="M49.8047 32.8281C46.3581 32.8277 42.9888 33.8494 40.1229 35.7639C37.257 37.6785 35.0232 40.3999 33.704 43.584C32.3848 46.7681 32.0394 50.2719 32.7116 53.6523C33.3837 57.0327 35.0432 60.1379 37.4802 62.5751C39.9171 65.0123 43.0221 66.6722 46.4024 67.3447C49.7827 68.0173 53.2866 67.6723 56.4708 66.3534C59.6551 65.0346 62.3768 62.8011 64.2916 59.9354C66.2065 57.0697 67.2285 53.7005 67.2285 50.2539C67.2234 45.6342 65.386 41.2052 62.1196 37.9384C58.8532 34.6716 54.4244 32.8338 49.8047 32.8281ZM55.4688 43.8223H49.8047C49.2769 43.8223 48.7706 44.0319 48.3974 44.4052C48.0241 44.7784 47.8145 45.2847 47.8145 45.8125C47.8145 46.3403 48.0241 46.8466 48.3974 47.2198C48.7706 47.593 49.2769 47.8027 49.8047 47.8027H49.8594C51.2154 47.8038 52.5156 48.3428 53.4746 49.3014C54.4336 50.26 54.9731 51.56 54.9746 52.916V53.416C54.9726 54.5082 54.6214 55.5711 53.9724 56.4496C53.3234 57.3281 52.4106 57.976 51.3672 58.2988V61.4238H48.2422V58.5332H44.3359V55.4082H49.8516C50.3793 55.4077 50.8852 55.1978 51.2583 54.8247C51.6314 54.4516 51.8413 53.9457 51.8418 53.418V52.918C51.8408 52.3906 51.6307 51.8852 51.2576 51.5125C50.8845 51.1398 50.3789 50.9302 49.8516 50.9297H49.7969C48.5771 50.9299 47.3974 50.4943 46.4705 49.7013C45.5436 48.9084 44.9306 47.8103 44.7421 46.6052C44.5535 45.4001 44.8018 44.1672 45.4422 43.129C46.0825 42.0909 47.0728 41.3157 48.2344 40.9434V38.0293H51.3594V40.6973H55.4609L55.4688 43.8223Z" fill="#0D436E"/>
<path d="M49.8047 25.082C44.8258 25.0805 39.9583 26.5555 35.8178 29.3205C31.6773 32.0854 28.4497 36.0162 26.5433 40.6156C24.637 45.2151 24.1373 50.2765 25.1077 55.1599C26.0781 60.0433 28.4749 64.5292 31.9949 68.0503C35.515 71.5715 40.0001 73.9696 44.8832 74.9415C49.7663 75.9134 54.8279 75.4154 59.4279 73.5104C64.028 71.6055 67.9597 68.3791 70.726 64.2395C73.4923 60.0998 74.9688 55.2328 74.9688 50.2539C74.9688 43.5793 72.3178 37.1779 67.5989 32.4575C62.8799 27.737 56.4793 25.0841 49.8047 25.082ZM49.8047 70.8027C45.7396 70.8047 41.7653 69.601 38.3844 67.3439C35.0035 65.0869 32.368 61.8778 30.8111 58.1227C29.2542 54.3676 28.846 50.2351 29.638 46.248C30.43 42.2608 32.3867 38.5981 35.2606 35.7231C38.1345 32.8481 41.7964 30.8901 45.7833 30.0965C49.7701 29.303 53.9028 29.7097 57.6585 31.2651C61.4142 32.8206 64.6242 35.4549 66.8826 38.835C69.1409 42.215 70.3461 46.1888 70.3457 50.2539C70.339 55.7004 68.173 60.922 64.3224 64.7739C60.4719 68.6259 55.2512 70.794 49.8047 70.8027Z" fill="#0D436E"/>
<path d="M78.9355 78.9415C84.4698 73.2872 88.2577 66.158 89.8458 58.407C91.434 50.6561 90.7552 42.6117 87.8906 35.2364C79.668 14.1036 55.7832 3.59972 34.6484 11.8243L35.9238 15.1017C55.2598 7.58019 77.0938 17.1837 84.6152 36.5118C87.235 43.2588 87.8546 50.6179 86.3997 57.7079C84.9449 64.7979 81.4772 71.3183 76.4121 76.4884L73.9121 74.0528C73.649 73.7961 73.3156 73.6233 72.9541 73.5562C72.5927 73.4891 72.2195 73.5307 71.8817 73.6758C71.544 73.821 71.2569 74.0631 71.0568 74.3715C70.8567 74.6799 70.7527 75.0407 70.7578 75.4083L70.8516 82.0275C70.8588 82.5191 71.0606 82.9878 71.4128 83.3308C71.765 83.6739 72.2388 83.8633 72.7305 83.8575L79.3496 83.7794C79.717 83.7749 80.0749 83.6615 80.3778 83.4535C80.6808 83.2456 80.9152 82.9524 81.0516 82.6112C81.1879 82.27 81.2199 81.896 81.1437 81.5366C81.0674 81.1771 80.8862 80.8484 80.6231 80.5919L78.9355 78.9415Z" fill="#0D436E"/>
<path d="M35.5176 84.1799C29.9462 81.7342 25.0518 77.9725 21.2549 73.218C17.458 68.4634 14.8722 62.8582 13.7196 56.8837C12.5669 50.9093 12.882 44.7444 14.6376 38.9186C16.3933 33.0929 19.5371 27.7804 23.7988 23.4377L26.0137 25.5861C26.2768 25.8428 26.6102 26.0157 26.9716 26.0828C27.3331 26.1499 27.7063 26.1082 28.0441 25.9631C28.3818 25.818 28.6689 25.5759 28.869 25.2675C29.069 24.9591 29.1731 24.5982 29.168 24.2306L29.0742 17.6115C29.0712 17.3679 29.0201 17.1273 28.924 16.9035C28.8279 16.6797 28.6886 16.477 28.5141 16.307C28.3396 16.137 28.1333 16.0031 27.907 15.9129C27.6807 15.8228 27.4389 15.7781 27.1953 15.7814L20.5762 15.8595C20.2058 15.8606 19.8442 15.9723 19.5377 16.1804C19.2313 16.3885 18.9941 16.6834 18.8566 17.0273C18.7191 17.3712 18.6875 17.7484 18.766 18.1104C18.8444 18.4724 19.0293 18.8027 19.2969 19.0588L21.2754 20.9865C14.6845 27.6997 10.5949 36.4699 9.68896 45.834C8.78301 55.1981 11.1155 64.5897 16.2972 72.4418C21.479 80.294 29.1966 86.1318 38.1625 88.9813C47.1284 91.8308 56.8003 91.5197 65.5645 88.0998L64.291 84.8244C59.6905 86.6246 54.7787 87.4946 49.8397 87.3839C44.9008 87.2733 40.0329 86.1843 35.5176 84.1799Z" fill="#0D436E"/>
</svg>
