<svg width="100" height="100" viewBox="0 0 100 100" fill="none" xmlns="http://www.w3.org/2000/svg">
<path d="M37.5 37.5C37.5 30.4167 42.9167 25 50 25C57.0833 25 62.5 30.4167 62.5 37.5C62.5 44.5833 57.0833 50 50 50C42.9167 50 37.5 44.5833 37.5 37.5ZM50 58.3333C30.8333 58.3333 25 72.0833 25 72.0833V79.1667H75V72.0833C75 72.0833 69.1667 58.3333 50 58.3333Z" fill="#0D436E"/>
<path d="M77.0834 45.8333C82.8364 45.8333 87.5001 41.1696 87.5001 35.4167C87.5001 29.6637 82.8364 25 77.0834 25C71.3304 25 66.6667 29.6637 66.6667 35.4167C66.6667 41.1696 71.3304 45.8333 77.0834 45.8333Z" fill="#0D436E"/>
<path d="M77.0834 54.1667C72.0834 54.1667 68.3334 55.4167 65.4167 57.5001C75.0001 62.0834 78.7501 70.0001 78.7501 70.8334V71.2501H95.8334V65.8334C95.8334 65.4167 91.2501 54.1667 77.0834 54.1667Z" fill="#0D436E"/>
<path d="M77.0834 45.8333C82.8364 45.8333 87.5001 41.1696 87.5001 35.4167C87.5001 29.6637 82.8364 25 77.0834 25C71.3304 25 66.6667 29.6637 66.6667 35.4167C66.6667 41.1696 71.3304 45.8333 77.0834 45.8333Z" fill="#0D436E"/>
<path d="M77.0834 54.1667C72.0834 54.1667 68.3334 55.4167 65.4167 57.5001C75.0001 62.0834 78.7501 70.0001 78.7501 70.8334V71.2501H95.8334V65.8334C95.8334 65.4167 91.2501 54.1667 77.0834 54.1667Z" fill="#0D436E"/>
<path d="M22.9167 45.8333C28.6696 45.8333 33.3333 41.1696 33.3333 35.4167C33.3333 29.6637 28.6696 25 22.9167 25C17.1637 25 12.5 29.6637 12.5 35.4167C12.5 41.1696 17.1637 45.8333 22.9167 45.8333Z" fill="#0D436E"/>
<path d="M22.9167 54.1667C27.9167 54.1667 31.6667 55.4167 34.5834 57.5001C25.0001 62.0834 21.2501 70.0001 21.2501 70.8334V71.2501H4.16675V65.8334C4.16675 65.4167 8.75008 54.1667 22.9167 54.1667Z" fill="#0D436E"/>
</svg>
