<svg width="390" height="835" viewBox="0 0 390 835" fill="none" xmlns="http://www.w3.org/2000/svg">
<path d="M0 417.659C0 690.117 0.525057 834.371 1.75019 834.371C2.8003 834.371 3.6754 814.31 3.85042 780.572L4.37547 726.591L15.5767 743.186C41.4795 781.484 72.4578 801.544 105.711 801.544C125.489 801.544 156.292 790.055 177.994 774.554C190.246 765.618 362.989 585.438 370.865 573.037C393.617 537.84 396.243 494.254 377.866 455.044L370.69 439.543L212.823 275.047L55.131 110.733L40.2543 103.438C32.0285 99.2438 20.4772 95.0493 14.5266 93.7727L3.50038 91.4019V46.1746C3.50038 17.178 2.8003 0.947266 1.75019 0.947266C0.525057 0.947266 0 141.006 0 417.659ZM19.4271 173.65C74.9081 234.196 109.562 351.277 106.061 465.804L105.186 499.36L126.189 533.828L147.366 568.113L146.316 600.392C144.741 646.531 143.515 659.297 140.89 660.391C139.665 660.938 123.038 653.461 103.786 643.978C84.5341 634.312 68.2574 626.471 67.5573 626.471C66.6822 626.471 62.6568 629.753 58.2813 633.765C51.2805 639.966 41.6545 645.984 33.0786 648.902C30.8033 649.631 30.1032 653.644 29.4032 669.874C28.8781 680.816 27.828 690.847 27.3029 691.941C26.6029 693.035 21.1773 693.947 14.7016 693.947H3.50038V559.906C3.50038 433.525 3.6754 425.865 6.65072 425.865C12.4263 425.683 24.5026 418.753 33.0786 410.364C57.9313 386.109 57.9313 345.259 33.0786 321.004C24.5026 312.615 12.4263 305.685 6.65072 305.502C3.6754 305.502 3.50038 300.761 3.50038 232.555C3.50038 192.434 4.20045 159.608 5.07555 159.608C5.77562 159.608 12.4263 165.991 19.4271 173.65Z" fill="#E9E9E9"/>
</svg>
